<svg width="18" height="18" viewBox="0 0 18 18" fill="none" xmlns="http://www.w3.org/2000/svg">
<g clip-path="url(#clip0_210_700)">
<path d="M15 7.5V12.75C15 13.5773 14.3273 14.25 13.5 14.25H8.25C7.42275 14.25 6.75 13.5773 6.75 12.75V6.75C6.75 6.336 7.08525 6 7.5 6C7.91475 6 8.25 6.336 8.25 6.75V12.75H10.5V10.5C10.5 10.086 10.8352 9.75 11.25 9.75C11.6648 9.75 12 10.086 12 10.5V12.75H13.5V7.5H10.5C10.0852 7.5 9.75 7.164 9.75 6.75C9.75 6.336 10.0852 6 10.5 6H13.5C14.3273 6 15 6.67275 15 7.5ZM18 6.75V14.25C18 16.3207 16.3207 18 14.25 18H2.73225C1.22325 18 0 16.7768 0 15.2677V2.625C0 1.17525 1.17525 0 2.625 0H3C4.24275 0 5.25 1.00725 5.25 2.25V3H14.25C16.3207 3 18 4.67925 18 6.75ZM1.5 13.0035C1.848 12.8385 2.23275 12.75 2.625 12.75H3C3.414 12.75 3.75 12.4132 3.75 12V2.25C3.75 1.83675 3.414 1.5 3 1.5H2.625C2.00475 1.5 1.5 2.00475 1.5 2.625V13.0035ZM16.5 6.75C16.5 5.50725 15.4928 4.5 14.25 4.5H5.25V12C5.25 13.2428 4.24275 14.25 3 14.25H2.625C2.004 14.25 1.5 14.754 1.5 15.375C1.5 15.996 2.004 16.5 2.625 16.5H14.25C15.4928 16.5 16.5 15.4928 16.5 14.25V6.75Z" fill="#454545"/>
</g>
<defs>
<clipPath id="clip0_210_700">
<rect width="18" height="18" fill="white"/>
</clipPath>
</defs>
</svg>
