<svg width="17" height="17" viewBox="0 0 17 17" fill="none" xmlns="http://www.w3.org/2000/svg">
<g clip-path="url(#clip0_346_1132)">
<path d="M13.255 8.49999H9.91667C9.13427 8.49999 8.49999 7.86571 8.49999 7.08331V3.73574C8.50195 3.07533 8.19672 2.45151 7.67407 2.0478C7.17881 1.6556 6.52942 1.51582 5.91669 1.66955C1.75202 2.70336 -0.786056 6.9176 0.247789 11.0823C0.976166 14.0165 3.34049 16.2618 6.30842 16.8378C10.3629 17.6139 14.3189 15.0931 15.3284 11.0904C15.4826 10.4768 15.3431 9.82646 14.9508 9.33017C14.5424 8.80845 13.9176 8.50252 13.255 8.49999Z" fill="#8A4FFF"/>
<path d="M16.7527 5.27427C16.591 4.67323 16.3502 4.09633 16.0366 3.5587C15.0933 1.94045 13.5524 0.757188 11.7455 0.263524C11.6265 0.231417 11.3602 0.212524 11.3602 0.212524C11.265 0.212558 10.8551 0.212524 10.5307 0.475327C10.0539 0.850556 9.97892 1.27715 9.97184 1.31045C9.94711 1.41491 9.93426 1.52186 9.93359 1.6292V4.95838C9.93359 6.13198 10.885 7.08338 12.0586 7.08338H15.4012C15.8447 7.08464 16.2621 6.8741 16.5246 6.5167C16.7188 6.2549 16.8187 5.93508 16.808 5.60933C16.8023 5.49591 16.7838 5.38348 16.7527 5.27427Z" fill="#8A4FFF"/>
</g>
<defs>
<clipPath id="clip0_346_1132">
<rect width="17" height="17" fill="white"/>
</clipPath>
</defs>
</svg>
