<svg width="18" height="18" viewBox="0 0 18 18" fill="none" xmlns="http://www.w3.org/2000/svg">
<path d="M6.1574 3.9674C6.0871 4.03712 6.0313 4.12007 5.99323 4.21146C5.95515 4.30286 5.93555 4.40089 5.93555 4.4999C5.93555 4.5989 5.95515 4.69693 5.99323 4.78833C6.0313 4.87972 6.0871 4.96267 6.1574 5.03239L9.5924 8.46739C9.66269 8.53712 9.71849 8.62007 9.75656 8.71146C9.79464 8.80286 9.81424 8.90089 9.81424 8.99989C9.81424 9.0989 9.79464 9.19693 9.75656 9.28833C9.71849 9.37972 9.66269 9.46267 9.5924 9.53239L6.1574 12.9674C6.0871 13.0371 6.0313 13.1201 5.99323 13.2115C5.95515 13.3029 5.93555 13.4009 5.93555 13.4999C5.93555 13.5989 5.95515 13.6969 5.99323 13.7883C6.0313 13.8797 6.0871 13.9627 6.1574 14.0324C6.29792 14.1721 6.48801 14.2505 6.68615 14.2505C6.88428 14.2505 7.07437 14.1721 7.2149 14.0324L10.6574 10.5899C11.0787 10.168 11.3154 9.59615 11.3154 8.99989C11.3154 8.40364 11.0787 7.83177 10.6574 7.40989L7.2149 3.9674C7.07437 3.82771 6.88428 3.7493 6.68615 3.7493C6.48801 3.7493 6.29792 3.82771 6.1574 3.9674Z" fill="#A9A9A9"/>
</svg>
