<svg width="16" height="15" viewBox="0 0 16 15" fill="none" xmlns="http://www.w3.org/2000/svg">
<path d="M11.75 7.5C9.67875 7.5 8 9.17875 8 11.25C8 13.3212 9.67875 15 11.75 15C13.8212 15 15.5 13.3212 15.5 11.25C15.5 9.17875 13.8212 7.5 11.75 7.5ZM13.745 11.3762L12.3619 12.7038C12.0794 12.9825 11.7044 13.1231 11.3288 13.1231C10.9531 13.1231 10.5769 12.9825 10.2894 12.7019L9.58187 12.0088C9.335 11.7669 9.33187 11.3712 9.57312 11.125C9.81437 10.8775 10.21 10.8744 10.4569 11.1162L11.1637 11.8087C11.2537 11.8975 11.4006 11.8956 11.49 11.8075L12.8794 10.4737C13.1275 10.235 13.5238 10.2419 13.7631 10.4919C14.0019 10.7406 13.9937 11.1369 13.745 11.3762ZM6.75 11.25C6.75 9.75625 7.405 8.41625 8.44312 7.5H3.625C3.27938 7.5 3 7.22062 3 6.875C3 6.52938 3.27938 6.25 3.625 6.25H8.625C8.97062 6.25 9.25 6.52938 9.25 6.875C9.25 6.89 9.24937 6.905 9.24813 6.92C9.98375 6.49375 10.8381 6.25 11.75 6.25V3.125C11.75 1.40188 10.3481 0 8.625 0H3.625C1.90188 0 0.5 1.40188 0.5 3.125V11.875C0.5 13.5981 1.90188 15 3.625 15H8.44312C7.405 14.0837 6.75 12.7437 6.75 11.25ZM3.625 3.125H8.625C8.97062 3.125 9.25 3.40438 9.25 3.75C9.25 4.09562 8.97062 4.375 8.625 4.375H3.625C3.27938 4.375 3 4.09562 3 3.75C3 3.40438 3.27938 3.125 3.625 3.125ZM4.875 10.625H3.625C3.27938 10.625 3 10.3456 3 10C3 9.65438 3.27938 9.375 3.625 9.375H4.875C5.22062 9.375 5.5 9.65438 5.5 10C5.5 10.3456 5.22062 10.625 4.875 10.625Z" fill="#454545"/>
</svg>
