<svg width="19" height="19" viewBox="0 0 19 19" fill="none" xmlns="http://www.w3.org/2000/svg">
<g clip-path="url(#clip0_346_5446)">
<path d="M4.00029 12C4.00029 13.1044 3.10492 13.9997 2.00054 13.9997C0.895375 13.9997 0 13.1044 0 12C0 10.8956 0.895375 10.0002 1.99975 10.0002H3.9995L4.00029 12Z" fill="#B083FF"/>
<path d="M5.00012 12C5.00012 10.8956 5.8955 10.0002 6.99987 10.0002C8.10425 10.0002 8.99962 10.8956 8.99962 12V17.0002C8.99962 18.1045 8.10425 18.9999 6.99987 18.9999C5.8955 18.9999 5.00012 18.1045 5.00012 17.0002V12Z" fill="#B083FF"/>
<path d="M6.99987 4.00029C5.8955 4.00029 5.00012 3.10492 5.00012 2.00054C5.00012 0.895375 5.8955 0 6.99987 0C8.10425 0 8.99962 0.895375 8.99962 1.99975V3.9995L6.99987 4.00029Z" fill="#B083FF"/>
<path d="M6.99992 5.00024C8.10429 5.00024 8.99967 5.89562 8.99967 6.99999C8.99967 8.10437 8.10429 8.99974 6.99992 8.99974H1.99975C0.895375 8.99974 0 8.10437 0 6.99999C0 5.89562 0.895375 5.00024 1.99975 5.00024H6.99992Z" fill="#B083FF"/>
<path d="M14.9998 6.99999C14.9998 5.89562 15.8951 5.00024 16.9995 5.00024C18.1047 5.00024 19 5.89562 19 6.99999C19 8.10437 18.1047 8.99974 17.0003 8.99974H15.0005L14.9998 6.99999Z" fill="#B083FF"/>
<path d="M13.9999 6.99992C13.9999 8.10429 13.1045 8.99967 12.0001 8.99967C10.8957 8.99967 10.0004 8.10429 10.0004 6.99992V1.99975C10.0004 0.895375 10.8957 0 12.0001 0C13.1045 0 13.9999 0.895375 13.9999 1.99975V6.99992Z" fill="#B083FF"/>
<path d="M12.0001 14.9995C13.1045 14.9995 13.9999 15.8949 13.9999 16.9993C13.9999 18.1036 13.1045 18.999 12.0001 18.999C10.8957 18.999 10.0004 18.1036 10.0004 16.9993V14.9995H12.0001Z" fill="#B083FF"/>
<path d="M12.0001 13.9997C10.8957 13.9997 10.0004 13.1044 10.0004 12C10.0004 10.8956 10.8957 10.0002 12.0001 10.0002H17.0003C18.1047 10.0002 19 10.8956 19 12C19 13.1044 18.1047 13.9997 17.0003 13.9997H12.0001Z" fill="#B083FF"/>
</g>
<defs>
<clipPath id="clip0_346_5446">
<rect width="19" height="19" fill="white"/>
</clipPath>
</defs>
</svg>
