<svg width="19" height="20" viewBox="0 0 19 20" fill="none" xmlns="http://www.w3.org/2000/svg">
<path d="M15.0417 1H3.95833C2.9089 1.00126 1.90282 1.4187 1.16076 2.16076C0.418698 2.90282 0.00125705 3.9089 0 4.95833L0 14.4583C0.00125705 15.5078 0.418698 16.5139 1.16076 17.2559C1.90282 17.998 2.9089 18.4154 3.95833 18.4167H15.0417C16.0911 18.4154 17.0972 17.998 17.8392 17.2559C18.5813 16.5139 18.9987 15.5078 19 14.4583V4.95833C18.9987 3.9089 18.5813 2.90282 17.8392 2.16076C17.0972 1.4187 16.0911 1.00126 15.0417 1ZM3.95833 2.58333H15.0417C15.5157 2.58427 15.9786 2.72703 16.3708 2.99326C16.7631 3.25949 17.0666 3.637 17.2425 4.07721L11.1799 10.1406C10.7338 10.585 10.1297 10.8345 9.5 10.8345C8.8703 10.8345 8.26624 10.585 7.82008 10.1406L1.7575 4.07721C1.93337 3.637 2.23694 3.25949 2.62916 2.99326C3.02138 2.72703 3.4843 2.58427 3.95833 2.58333ZM15.0417 16.8333H3.95833C3.32844 16.8333 2.72435 16.5831 2.27895 16.1377C1.83356 15.6923 1.58333 15.0882 1.58333 14.4583V6.14583L6.70067 11.26C7.44375 12.0012 8.45045 12.4174 9.5 12.4174C10.5495 12.4174 11.5563 12.0012 12.2993 11.26L17.4167 6.14583V14.4583C17.4167 15.0882 17.1664 15.6923 16.721 16.1377C16.2756 16.5831 15.6716 16.8333 15.0417 16.8333Z" fill="#B083FF"/>
</svg>
