<svg width="15" height="15" viewBox="0 0 15 15" fill="none" xmlns="http://www.w3.org/2000/svg">
<g clip-path="url(#clip0_346_1318)">
<path d="M8.75 4.38435V0.296228C9.32063 0.512478 9.84563 0.845603 10.2906 1.28998L12.4681 3.46873C12.9131 3.9131 13.2463 4.4381 13.4625 5.00873H9.375C9.03 5.00873 8.75 4.72873 8.75 4.38435ZM13.735 6.25935H9.375C8.34125 6.25935 7.5 5.4181 7.5 4.38435V0.023728C7.39938 0.016853 7.29875 0.00872803 7.19688 0.00872803H4.375C2.65188 0.00935303 1.25 1.41123 1.25 3.13435V11.8844C1.25 13.6075 2.65188 15.0094 4.375 15.0094H10.625C12.3481 15.0094 13.75 13.6075 13.75 11.8844V6.56248C13.75 6.4606 13.7419 6.35998 13.735 6.25935ZM9.81688 11.5756L8.80875 12.5844C8.44813 12.945 7.97375 13.1256 7.5 13.1256C7.02625 13.1256 6.55188 12.945 6.19125 12.5844L5.18313 11.5756C4.93875 11.3312 4.93875 10.9356 5.18313 10.6919C5.4275 10.4475 5.8225 10.4475 6.06688 10.6919L6.875 11.5V8.75123C6.875 8.40623 7.15438 8.12623 7.5 8.12623C7.84563 8.12623 8.125 8.40623 8.125 8.75123V11.5L8.93313 10.6919C9.1775 10.4475 9.5725 10.4475 9.81688 10.6919C10.0613 10.9356 10.0613 11.3312 9.81688 11.5756Z" fill="#454545"/>
</g>
<defs>
<clipPath id="clip0_346_1318">
<rect width="15" height="15" fill="white"/>
</clipPath>
</defs>
</svg>
