<svg width="13" height="15" viewBox="0 0 13 15" fill="none" xmlns="http://www.w3.org/2000/svg">
<path d="M7.75 4.38441V0.296289C8.32063 0.512539 8.84563 0.845664 9.29063 1.29004L11.4681 3.46879C11.9131 3.91316 12.2463 4.43816 12.4625 5.00879H8.375C8.03 5.00879 7.75 4.72879 7.75 4.38441ZM12.735 6.25942H8.375C7.34125 6.25942 6.5 5.41816 6.5 4.38441V0.0237891C6.39938 0.0169141 6.29875 0.00878906 6.19688 0.00878906H3.375C1.65188 0.00941406 0.25 1.41129 0.25 3.13441V11.8844C0.25 13.6075 1.65188 15.0094 3.375 15.0094H9.625C11.3481 15.0094 12.75 13.6075 12.75 11.8844V6.56254C12.75 6.46066 12.7419 6.36004 12.735 6.25942ZM8.81688 11.5757L7.80875 12.5844C7.44813 12.945 6.97375 13.1257 6.5 13.1257C6.02625 13.1257 5.55188 12.945 5.19125 12.5844L4.18313 11.5757C3.93875 11.3313 3.93875 10.9357 4.18313 10.6919C4.4275 10.4475 4.8225 10.4475 5.06688 10.6919L5.875 11.5V8.75129C5.875 8.40629 6.15438 8.12629 6.5 8.12629C6.84563 8.12629 7.125 8.40629 7.125 8.75129V11.5L7.93313 10.6919C8.1775 10.4475 8.5725 10.4475 8.81688 10.6919C9.06125 10.9357 9.06125 11.3313 8.81688 11.5757Z" fill="white"/>
</svg>
