<svg width="15" height="15" viewBox="0 0 15 15" fill="none" xmlns="http://www.w3.org/2000/svg">
<g clip-path="url(#clip0_346_2544)">
<path d="M7.5 4.375V0.2875C8.07063 0.50375 8.59563 0.836875 9.04063 1.28125L11.2181 3.46C11.6631 3.90437 11.9963 4.42938 12.2125 5H8.125C7.78 5 7.5 4.71938 7.5 4.375ZM8.29375 12.175C7.78563 12.6831 7.5 13.3719 7.5 14.0906V15H8.40938C9.12813 15 9.81688 14.7144 10.325 14.2062L14.5794 9.95188C15.14 9.39125 15.14 8.48125 14.5794 7.92063C14.0188 7.36 13.1088 7.36 12.5481 7.92063L8.29375 12.175ZM6.25 14.0906C6.25 13.0331 6.66188 12.0387 7.40938 11.2913L11.6638 7.03687C11.9069 6.79375 12.19 6.60687 12.4956 6.47375C12.4931 6.39875 12.49 6.32437 12.485 6.24937H8.125C7.09125 6.24937 6.25 5.40812 6.25 4.37437V0.015C6.14938 0.008125 6.04875 0 5.94688 0H3.125C1.40188 0 0 1.40188 0 3.125V11.875C0 13.5981 1.40188 15 3.125 15H6.25V14.0906Z" fill="#454545"/>
</g>
<defs>
<clipPath id="clip0_346_2544">
<rect width="15" height="15" fill="white"/>
</clipPath>
</defs>
</svg>
