<svg width="18" height="18" viewBox="0 0 18 18" fill="none" xmlns="http://www.w3.org/2000/svg">
<g clip-path="url(#clip0_312_247)">
<g clip-path="url(#clip1_312_247)">
<path d="M14.25 3H11.25V2.25C11.25 1.65326 11.0129 1.08097 10.591 0.65901C10.169 0.237053 9.59674 0 9 0C8.40326 0 7.83097 0.237053 7.40901 0.65901C6.98705 1.08097 6.75 1.65326 6.75 2.25V3H3.75C2.7558 3.00119 1.80267 3.39666 1.09966 4.09966C0.396661 4.80267 0.00119089 5.7558 0 6.75L0 14.25C0.00119089 15.2442 0.396661 16.1973 1.09966 16.9003C1.80267 17.6033 2.7558 17.9988 3.75 18H14.25C15.2442 17.9988 16.1973 17.6033 16.9003 16.9003C17.6033 16.1973 17.9988 15.2442 18 14.25V6.75C17.9988 5.7558 17.6033 4.80267 16.9003 4.09966C16.1973 3.39666 15.2442 3.00119 14.25 3ZM8.25 2.25C8.25 2.05109 8.32902 1.86032 8.46967 1.71967C8.61032 1.57902 8.80109 1.5 9 1.5C9.19891 1.5 9.38968 1.57902 9.53033 1.71967C9.67098 1.86032 9.75 2.05109 9.75 2.25V3.75C9.75 3.94891 9.67098 4.13968 9.53033 4.28033C9.38968 4.42098 9.19891 4.5 9 4.5C8.80109 4.5 8.61032 4.42098 8.46967 4.28033C8.32902 4.13968 8.25 3.94891 8.25 3.75V2.25ZM16.5 14.25C16.5 14.8467 16.2629 15.419 15.841 15.841C15.419 16.2629 14.8467 16.5 14.25 16.5H3.75C3.15326 16.5 2.58097 16.2629 2.15901 15.841C1.73705 15.419 1.5 14.8467 1.5 14.25V6.75C1.5 6.15326 1.73705 5.58097 2.15901 5.15901C2.58097 4.73705 3.15326 4.5 3.75 4.5H6.888C7.04074 4.93841 7.32612 5.31842 7.70456 5.58733C8.083 5.85624 8.53575 6.00071 9 6.00071C9.46425 6.00071 9.917 5.85624 10.2954 5.58733C10.6739 5.31842 10.9593 4.93841 11.112 4.5H14.25C14.8467 4.5 15.419 4.73705 15.841 5.15901C16.2629 5.58097 16.5 6.15326 16.5 6.75V14.25ZM7.5 7.5H3.75C3.55109 7.5 3.36032 7.57902 3.21967 7.71967C3.07902 7.86032 3 8.05109 3 8.25V14.25C3 14.4489 3.07902 14.6397 3.21967 14.7803C3.36032 14.921 3.55109 15 3.75 15H7.5C7.69891 15 7.88968 14.921 8.03033 14.7803C8.17098 14.6397 8.25 14.4489 8.25 14.25V8.25C8.25 8.05109 8.17098 7.86032 8.03033 7.71967C7.88968 7.57902 7.69891 7.5 7.5 7.5ZM6.75 13.5H4.5V9H6.75V13.5ZM15 11.25C15 11.4489 14.921 11.6397 14.7803 11.7803C14.6397 11.921 14.4489 12 14.25 12H10.5C10.3011 12 10.1103 11.921 9.96967 11.7803C9.82902 11.6397 9.75 11.4489 9.75 11.25C9.75 11.0511 9.82902 10.8603 9.96967 10.7197C10.1103 10.579 10.3011 10.5 10.5 10.5H14.25C14.4489 10.5 14.6397 10.579 14.7803 10.7197C14.921 10.8603 15 11.0511 15 11.25ZM15 8.25C15 8.44891 14.921 8.63968 14.7803 8.78033C14.6397 8.92098 14.4489 9 14.25 9H10.5C10.3011 9 10.1103 8.92098 9.96967 8.78033C9.82902 8.63968 9.75 8.44891 9.75 8.25C9.75 8.05109 9.82902 7.86032 9.96967 7.71967C10.1103 7.57902 10.3011 7.5 10.5 7.5H14.25C14.4489 7.5 14.6397 7.57902 14.7803 7.71967C14.921 7.86032 15 8.05109 15 8.25ZM13.5 14.25C13.5 14.4489 13.421 14.6397 13.2803 14.7803C13.1397 14.921 12.9489 15 12.75 15H10.5C10.3011 15 10.1103 14.921 9.96967 14.7803C9.82902 14.6397 9.75 14.4489 9.75 14.25C9.75 14.0511 9.82902 13.8603 9.96967 13.7197C10.1103 13.579 10.3011 13.5 10.5 13.5H12.75C12.9489 13.5 13.1397 13.579 13.2803 13.7197C13.421 13.8603 13.5 14.0511 13.5 14.25Z" fill="#454545"/>
</g>
</g>
<defs>
<clipPath id="clip0_312_247">
<rect width="18" height="18" fill="white"/>
</clipPath>
<clipPath id="clip1_312_247">
<rect width="18" height="18" fill="white"/>
</clipPath>
</defs>
</svg>
