<svg width="18" height="18" viewBox="0 0 18 18" fill="none" xmlns="http://www.w3.org/2000/svg">
<path d="M3.75 9.74989L11.25 9.74989L8.7825 12.2174C8.7122 12.2871 8.65641 12.3701 8.61833 12.4615C8.58026 12.5529 8.56065 12.6509 8.56065 12.7499C8.56065 12.8489 8.58026 12.9469 8.61833 13.0383C8.65641 13.1297 8.7122 13.2127 8.7825 13.2824C8.92302 13.4221 9.11311 13.5005 9.31125 13.5005C9.50939 13.5005 9.69948 13.4221 9.84 13.2824L13.0575 10.0574C13.3392 9.77738 13.4983 9.39708 13.5 8.99989C13.4964 8.60532 13.3374 8.22807 13.0575 7.94989L9.84 4.72489C9.77007 4.65546 9.68715 4.60047 9.59597 4.56308C9.5048 4.52569 9.40715 4.50663 9.3086 4.50698C9.21005 4.50732 9.11254 4.52708 9.02163 4.56511C8.93072 4.60315 8.84819 4.65871 8.77875 4.72864C8.70931 4.79857 8.65433 4.88149 8.61694 4.97267C8.57955 5.06385 8.56049 5.1615 8.56083 5.26005C8.56118 5.35859 8.58094 5.4561 8.61897 5.54701C8.657 5.63793 8.71257 5.72046 8.7825 5.78989L11.25 8.24989L3.75 8.24989C3.55109 8.24989 3.36032 8.32891 3.21967 8.46956C3.07902 8.61022 3 8.80098 3 8.99989C3 9.19881 3.07902 9.38957 3.21967 9.53022C3.36032 9.67088 3.55109 9.74989 3.75 9.74989Z" fill="#363636"/>
</svg>
