<svg width="18" height="18" viewBox="0 0 18 18" fill="none" xmlns="http://www.w3.org/2000/svg">
<path d="M14.25 8.25011H6.75L9.2175 5.78261C9.2878 5.71288 9.34359 5.62993 9.38167 5.53854C9.41974 5.44714 9.43935 5.34912 9.43935 5.25011C9.43935 5.1511 9.41974 5.05307 9.38167 4.96167C9.34359 4.87028 9.2878 4.78733 9.2175 4.71761C9.07698 4.57792 8.88689 4.49951 8.68875 4.49951C8.49061 4.49951 8.30052 4.57792 8.16 4.71761L4.9425 7.94261C4.66081 8.22262 4.50167 8.60292 4.5 9.00011C4.50365 9.39468 4.66263 9.77193 4.9425 10.0501L8.16 13.2751C8.22993 13.3445 8.31285 13.3995 8.40403 13.4369C8.49521 13.4743 8.59286 13.4934 8.6914 13.493C8.78995 13.4927 8.88746 13.4729 8.97837 13.4349C9.06928 13.3969 9.15181 13.3413 9.22125 13.2714C9.29069 13.2014 9.34567 13.1185 9.38306 13.0273C9.42045 12.9361 9.43952 12.8385 9.43917 12.74C9.43882 12.6414 9.41906 12.5439 9.38103 12.453C9.343 12.3621 9.28743 12.2795 9.2175 12.2101L6.75 9.75011H14.25C14.4489 9.75011 14.6397 9.67109 14.7803 9.53044C14.921 9.38978 15 9.19902 15 9.00011C15 8.80119 14.921 8.61043 14.7803 8.46978C14.6397 8.32912 14.4489 8.25011 14.25 8.25011Z" fill="#363636"/>
</svg>
