<svg width="16" height="16" viewBox="0 0 16 16" fill="none" xmlns="http://www.w3.org/2000/svg">
<g clip-path="url(#clip0_279_179)">
<path d="M15.7086 14.2968L12.6119 11.1987C14.929 8.10222 14.2972 3.71356 11.2007 1.39641C8.10418 -0.920736 3.71551 -0.288925 1.39836 2.80759C-0.918783 5.90411 -0.286972 10.2928 2.80954 12.6099C5.29692 14.4712 8.71328 14.4712 11.2007 12.6099L14.2988 15.708C14.6881 16.0973 15.3193 16.0973 15.7086 15.708C16.0979 15.3187 16.0979 14.6874 15.7086 14.2982L15.7086 14.2968ZM7.03094 12.012C4.2789 12.012 2.04796 9.78102 2.04796 7.02898C2.04796 4.27695 4.2789 2.04601 7.03094 2.04601C9.78297 2.04601 12.0139 4.27695 12.0139 7.02898C12.011 9.77977 9.78176 12.009 7.03094 12.012Z" fill="#717171"/>
</g>
<defs>
<clipPath id="clip0_279_179">
<rect width="16" height="16" fill="white"/>
</clipPath>
</defs>
</svg>
