<svg width="17" height="18" viewBox="0 0 17 18" fill="none" xmlns="http://www.w3.org/2000/svg">
<g clip-path="url(#clip0_346_2496)">
<path d="M9.91675 5.40023V0.767728C10.572 1.01517 11.1672 1.39907 11.6628 1.89398L14.1306 4.36323C14.6261 4.85827 15.0103 5.45328 15.2576 6.10856H10.6251C10.4372 6.10856 10.2571 6.03393 10.1242 5.90109C9.99138 5.76826 9.91675 5.58809 9.91675 5.40023ZM15.5834 7.86877V13.9002C15.5823 14.8392 15.2088 15.7394 14.5448 16.4033C13.8809 17.0673 12.9807 17.4408 12.0417 17.4419H4.95842C4.01945 17.4408 3.11927 17.0673 2.45532 16.4033C1.79137 15.7394 1.41787 14.8392 1.41675 13.9002V3.98356C1.41787 3.0446 1.79137 2.14441 2.45532 1.48047C3.11927 0.816519 4.01945 0.443019 4.95842 0.441895L8.15654 0.441895C8.272 0.441895 8.38604 0.451103 8.50008 0.458895V5.40023C8.50008 5.96381 8.72396 6.50431 9.12248 6.90283C9.52099 7.30134 10.0615 7.52523 10.6251 7.52523H15.5664C15.5742 7.63927 15.5834 7.75331 15.5834 7.86877ZM11.8462 10.5789C11.7168 10.4429 11.5386 10.364 11.3509 10.3593C11.1633 10.3547 10.9814 10.4247 10.8454 10.5541L8.29537 12.9844C8.22724 13.0529 8.14579 13.1068 8.05606 13.1426C7.96632 13.1785 7.87019 13.1957 7.77358 13.193C7.67698 13.1904 7.58193 13.168 7.4943 13.1272C7.40667 13.0865 7.32831 13.0282 7.26404 12.956L6.1385 11.9544C6.06901 11.8925 5.98801 11.8448 5.9001 11.8142C5.8122 11.7835 5.71912 11.7705 5.62618 11.7758C5.43848 11.7866 5.26274 11.8715 5.13762 12.0118C5.07567 12.0813 5.02801 12.1623 4.99737 12.2502C4.96673 12.3381 4.9537 12.4312 4.95902 12.5241C4.96978 12.7118 5.05467 12.8876 5.195 13.0127L6.28867 13.9859C6.6851 14.3825 7.22219 14.6062 7.78289 14.6085C8.3436 14.6107 8.88247 14.3913 9.28208 13.998L11.8215 11.5797C11.9574 11.4502 12.0363 11.2721 12.041 11.0844C12.0456 10.8968 11.9756 10.7149 11.8462 10.5789Z" fill="white"/>
</g>
<defs>
<clipPath id="clip0_346_2496">
<rect width="17" height="17" fill="white" transform="translate(0 0.441895)"/>
</clipPath>
</defs>
</svg>
