<svg width="18" height="18" viewBox="0 0 18 18" fill="none" xmlns="http://www.w3.org/2000/svg">
<g clipPath="url(#clip0_210_727)">
<path d="M9 18C4.03725 18 0 13.9628 0 9C0 4.03725 4.03725 0 9 0C13.9628 0 18 4.03725 18 9C18 13.9628 13.9628 18 9 18ZM9 1.5C4.8645 1.5 1.5 4.8645 1.5 9C1.5 13.1355 4.8645 16.5 9 16.5C13.1355 16.5 16.5 13.1355 16.5 9C16.5 4.8645 13.1355 1.5 9 1.5ZM10.875 12.2475C11.2343 12.0405 11.3573 11.5815 11.1495 11.223L9.75 8.799V4.5C9.75 4.086 9.41475 3.75 9 3.75C8.58525 3.75 8.25 4.086 8.25 4.5V9C8.25 9.132 8.2845 9.261 8.3505 9.375L9.8505 11.973C9.99 12.2137 10.2413 12.348 10.5008 12.348C10.6283 12.348 10.7572 12.3158 10.875 12.2475Z" fill="#454545"/>
</g>
<defs>
<clipPath id="clip0_210_727">
<rect width="18" height="18" fill="white"/>
</clipPath>
</defs>
</svg>
