<svg width="21" height="21" viewBox="0 0 21 21" fill="none" xmlns="http://www.w3.org/2000/svg">
<rect width="21" height="21" rx="4" fill="#8A4FFF"/>
<g clipPath="url(#clip0_718_42)">
<path d="M6.37462 14.2498C6.53025 14.2498 6.71962 14.1722 6.92025 14.0901C7.167 13.9892 7.44675 13.8748 7.74975 13.8748C8.05275 13.8748 8.3325 13.9892 8.57925 14.0901C8.77987 14.1722 8.96962 14.2498 9.12487 14.2498C9.28012 14.2498 9.46987 14.1722 9.6705 14.0901C9.91725 13.9892 10.197 13.8748 10.5 13.8748C10.803 13.8748 11.0827 13.9892 11.3295 14.0901C11.475 14.1497 11.6145 14.2067 11.7394 14.2337L10.3324 11.0571L7.63762 12.2856C7.491 12.3527 7.335 12.3861 7.179 12.3861C7.005 12.3861 6.83138 12.3445 6.67087 12.262C6.36525 12.1048 6.15187 11.8198 6.08587 11.4808C5.67037 9.34522 6.68587 7.25797 8.556 6.40522C10.4812 5.52734 12.7822 6.13334 14.0276 7.84709C14.2335 8.13059 14.3006 8.48834 14.211 8.82884C14.1236 9.16109 13.8971 9.43184 13.5892 9.57209L11.0149 10.7458L12.4845 14.0642C12.7151 13.9708 12.9727 13.8748 13.2499 13.8748C13.5529 13.8748 13.8326 13.9892 14.0794 14.0901C14.28 14.1722 14.4694 14.2498 14.625 14.2498C14.832 14.2498 15 14.4178 15 14.6248C15 14.8318 14.832 14.9998 14.625 14.9998C14.322 14.9998 14.0422 14.8855 13.7955 14.7846C13.5949 14.7025 13.4055 14.6248 13.2499 14.6248C13.0942 14.6248 12.9049 14.7025 12.7042 14.7846C12.4575 14.8855 12.1777 14.9998 11.8747 14.9998C11.5717 14.9998 11.292 14.8855 11.0452 14.7846C10.8446 14.7025 10.6552 14.6248 10.4996 14.6248C10.344 14.6248 10.1546 14.7025 9.954 14.7846C9.70725 14.8855 9.4275 14.9998 9.1245 14.9998C8.8215 14.9998 8.54175 14.8855 8.295 14.7846C8.09437 14.7025 7.90462 14.6248 7.74937 14.6248C7.59412 14.6248 7.40437 14.7025 7.20375 14.7846C6.957 14.8855 6.67725 14.9998 6.37425 14.9998C6.16725 14.9998 5.99925 14.8318 5.99925 14.6248C5.99925 14.4178 6.16762 14.2498 6.37462 14.2498Z" fill="white"/>
</g>
<defs>
<clipPath id="clip0_718_42">
<rect width="9" height="9" fill="white" transform="matrix(-1 0 0 1 15 6)"/>
</clipPath>
</defs>
</svg>
