<svg width="17" height="17" viewBox="0 0 17 17" fill="none" xmlns="http://www.w3.org/2000/svg">
<g clip-path="url(#clip0_346_2474)">
<path d="M9.91675 4.95833V0.325833C10.572 0.573279 11.1672 0.957179 11.6628 1.45208L14.1306 3.92133C14.6261 4.41637 15.0103 5.01138 15.2576 5.66667H10.6251C10.4372 5.66667 10.2571 5.59204 10.1242 5.4592C9.99138 5.32636 9.91675 5.14619 9.91675 4.95833ZM15.5834 7.42687V13.4583C15.5823 14.3973 15.2088 15.2975 14.5448 15.9614C13.8809 16.6254 12.9807 16.9989 12.0417 17H4.95842C4.01945 16.9989 3.11927 16.6254 2.45532 15.9614C1.79137 15.2975 1.41787 14.3973 1.41675 13.4583V3.54167C1.41787 2.6027 1.79137 1.70252 2.45532 1.03857C3.11927 0.374625 4.01945 0.00112473 4.95842 0L8.15654 0C8.272 0 8.38604 0.00920833 8.50008 0.017V4.95833C8.50008 5.52192 8.72396 6.06242 9.12248 6.46094C9.52099 6.85945 10.0615 7.08333 10.6251 7.08333H15.5664C15.5742 7.19737 15.5834 7.31142 15.5834 7.42687ZM9.91675 13.4583C9.91675 13.2705 9.84212 13.0903 9.70928 12.9575C9.57644 12.8246 9.39628 12.75 9.20842 12.75H5.66675C5.47889 12.75 5.29872 12.8246 5.16588 12.9575C5.03304 13.0903 4.95842 13.2705 4.95842 13.4583C4.95842 13.6462 5.03304 13.8264 5.16588 13.9592C5.29872 14.092 5.47889 14.1667 5.66675 14.1667H9.20842C9.39628 14.1667 9.57644 14.092 9.70928 13.9592C9.84212 13.8264 9.91675 13.6462 9.91675 13.4583ZM12.0417 10.625C12.0417 10.4371 11.9671 10.257 11.8343 10.1241C11.7014 9.99129 11.5213 9.91667 11.3334 9.91667H5.66675C5.47889 9.91667 5.29872 9.99129 5.16588 10.1241C5.03304 10.257 4.95842 10.4371 4.95842 10.625C4.95842 10.8129 5.03304 10.993 5.16588 11.1259C5.29872 11.2587 5.47889 11.3333 5.66675 11.3333H11.3334C11.5213 11.3333 11.7014 11.2587 11.8343 11.1259C11.9671 10.993 12.0417 10.8129 12.0417 10.625Z" fill="#595959"/>
</g>
<defs>
<clipPath id="clip0_346_2474">
<rect width="17" height="17" fill="white"/>
</clipPath>
</defs>
</svg>
