<svg width="17" height="17" viewBox="0 0 17 17" fill="none" xmlns="http://www.w3.org/2000/svg">
<g clip-path="url(#clip0_346_1188)">
<path d="M9.91669 4.95833V0.325833C10.5719 0.573279 11.1671 0.957179 11.6627 1.45208L14.1306 3.92133C14.626 4.41637 15.0102 5.01138 15.2575 5.66667H10.625C10.4372 5.66667 10.257 5.59204 10.1242 5.4592C9.99132 5.32636 9.91669 5.14619 9.91669 4.95833ZM15.5834 7.42687V13.4583C15.5822 14.3973 15.2087 15.2975 14.5448 15.9614C13.8808 16.6254 12.9807 16.9989 12.0417 17H4.95835C4.01939 16.9989 3.11921 16.6254 2.45526 15.9614C1.79131 15.2975 1.41781 14.3973 1.41669 13.4583V3.54167C1.41781 2.6027 1.79131 1.70252 2.45526 1.03857C3.11921 0.374625 4.01939 0.00112473 4.95835 0L8.15648 0C8.27194 0 8.38598 0.00920833 8.50002 0.017V4.95833C8.50002 5.52192 8.7239 6.06242 9.12242 6.46094C9.52093 6.85945 10.0614 7.08333 10.625 7.08333H15.5664C15.5741 7.19737 15.5834 7.31142 15.5834 7.42687ZM9.91669 13.4583C9.91669 13.2705 9.84206 13.0903 9.70922 12.9575C9.57638 12.8246 9.39622 12.75 9.20835 12.75H5.66669C5.47883 12.75 5.29866 12.8246 5.16582 12.9575C5.03298 13.0903 4.95835 13.2705 4.95835 13.4583C4.95835 13.6462 5.03298 13.8264 5.16582 13.9592C5.29866 14.092 5.47883 14.1667 5.66669 14.1667H9.20835C9.39622 14.1667 9.57638 14.092 9.70922 13.9592C9.84206 13.8264 9.91669 13.6462 9.91669 13.4583ZM12.0417 10.625C12.0417 10.4371 11.9671 10.257 11.8342 10.1241C11.7014 9.99129 11.5212 9.91667 11.3334 9.91667H5.66669C5.47883 9.91667 5.29866 9.99129 5.16582 10.1241C5.03298 10.257 4.95835 10.4371 4.95835 10.625C4.95835 10.8129 5.03298 10.993 5.16582 11.1259C5.29866 11.2587 5.47883 11.3333 5.66669 11.3333H11.3334C11.5212 11.3333 11.7014 11.2587 11.8342 11.1259C11.9671 10.993 12.0417 10.8129 12.0417 10.625Z" fill="#8A4FFF"/>
</g>
<defs>
<clipPath id="clip0_346_1188">
<rect width="17" height="17" fill="white"/>
</clipPath>
</defs>
</svg>
