<svg width="16" height="16" viewBox="0 0 16 16" fill="none" xmlns="http://www.w3.org/2000/svg">
<g clip-path="url(#clip0_346_2454)">
<path d="M8.76136 9.90923L8.29336 10.3772L9.70736 11.7912L15.0547 6.4439L13.6407 5.0299L13.146 5.52456L9.54803 1.93523L10.04 1.44323L8.62603 0.0285645L3.29136 5.36323L4.70536 6.77723L5.16203 6.32056L6.25003 7.4059L0.0300293 13.6259L1.44403 15.0399L7.6667 8.8179L8.7607 9.90923H8.76136ZM8.95603 4.16856L10.9114 6.11923L9.3547 7.6759L7.39936 5.72523L8.95603 4.16856ZM16.0007 13.9999V15.9999H6.0007V13.9999H6.66736C6.66736 13.2646 7.26536 12.6666 8.0007 12.6666H14.0007C14.736 12.6666 15.334 13.2646 15.334 13.9999H16.0007Z" fill="#777777"/>
</g>
<defs>
<clipPath id="clip0_346_2454">
<rect width="16" height="16" fill="white"/>
</clipPath>
</defs>
</svg>
