<svg width="16" height="16" viewBox="0 0 16 16" fill="none" xmlns="http://www.w3.org/2000/svg">
<path d="M8.76112 9.90899L8.29312 10.377L9.70712 11.791L15.0545 6.44365L13.6405 5.02965L13.1458 5.52432L9.54778 1.93499L10.0398 1.44299L8.62578 0.0283203L3.29112 5.36299L4.70512 6.77699L5.16178 6.32032L6.24978 7.40565L0.0297852 13.6257L1.44378 15.0397L7.66645 8.81765L8.76045 9.90899H8.76112ZM8.95578 4.16832L10.9111 6.11899L9.35445 7.67565L7.39912 5.72499L8.95578 4.16832ZM16.0005 13.9997V15.9997H6.00045V13.9997H6.66712C6.66712 13.2643 7.26512 12.6663 8.00045 12.6663H14.0005C14.7358 12.6663 15.3338 13.2643 15.3338 13.9997H16.0005Z" fill="#8A4FFF"/>
</svg>
