<svg width="17" height="17" viewBox="0 0 17 17" fill="none" xmlns="http://www.w3.org/2000/svg">
<g clipPath="url(#clip0_346_2467)">
<path d="M2.83332 0H4.95832C6.52312 0 7.79164 1.26853 7.79164 2.83332V4.95832C7.79164 6.52312 6.52312 7.79164 4.95832 7.79164H2.83332C1.26853 7.79168 0 6.52315 0 4.95832V2.83332C0 1.26853 1.26853 0 2.83332 0Z" fill="#8A4FFF"/>
<path d="M12.0416 0H14.1666C15.7314 0 16.9999 1.26853 16.9999 2.83332V4.95832C16.9999 6.52312 15.7314 7.79164 14.1666 7.79164H12.0416C10.4768 7.79164 9.20825 6.52312 9.20825 4.95832V2.83332C9.20822 1.26853 10.4767 0 12.0416 0Z" fill="#8A4FFF"/>
<path d="M2.83332 9.20825H4.95832C6.52312 9.20825 7.79164 10.4768 7.79164 12.0416V14.1666C7.79164 15.7314 6.52312 16.9999 4.95832 16.9999H2.83332C1.26853 16.9999 0 15.7314 0 14.1666V12.0416C0 10.4768 1.26853 9.20825 2.83332 9.20825Z" fill="#8A4FFF"/>
<path d="M12.0416 9.20825H14.1666C15.7314 9.20825 16.9999 10.4768 16.9999 12.0416V14.1666C16.9999 15.7314 15.7314 16.9999 14.1666 16.9999H12.0416C10.4768 16.9999 9.20825 15.7314 9.20825 14.1666V12.0416C9.20822 10.4768 10.4767 9.20825 12.0416 9.20825Z" fill="#8A4FFF"/>
</g>
<defs>
<clipPath id="clip0_346_2467">
<rect width="17" height="17" fill="white"/>
</clipPath>
</defs>
</svg>
