<svg width="17" height="17" viewBox="0 0 17 17" fill="none" xmlns="http://www.w3.org/2000/svg">
<g clip-path="url(#clip0_346_1180)">
<g clip-path="url(#clip1_346_1180)">
<path d="M2.83332 0H4.95832C6.52312 0 7.79164 1.26853 7.79164 2.83332V4.95832C7.79164 6.52312 6.52312 7.79164 4.95832 7.79164H2.83332C1.26853 7.79168 0 6.52315 0 4.95832V2.83332C0 1.26853 1.26853 0 2.83332 0Z" fill="#595959"/>
<path d="M12.0417 0H14.1667C15.7315 0 17 1.26853 17 2.83332V4.95832C17 6.52312 15.7315 7.79164 14.1667 7.79164H12.0417C10.4769 7.79164 9.20837 6.52312 9.20837 4.95832V2.83332C9.20834 1.26853 10.4769 0 12.0417 0Z" fill="#595959"/>
<path d="M2.83332 9.20837H4.95832C6.52312 9.20837 7.79164 10.4769 7.79164 12.0417V14.1667C7.79164 15.7315 6.52312 17 4.95832 17H2.83332C1.26853 17.0001 0 15.7315 0 14.1667V12.0417C0 10.4769 1.26853 9.20837 2.83332 9.20837Z" fill="#595959"/>
<path d="M12.0417 9.20837H14.1667C15.7315 9.20837 17 10.4769 17 12.0417V14.1667C17 15.7315 15.7315 17.0001 14.1667 17.0001H12.0417C10.4769 17.0001 9.20837 15.7315 9.20837 14.1667V12.0417C9.20834 10.4769 10.4769 9.20837 12.0417 9.20837Z" fill="#595959"/>
</g>
</g>
<defs>
<clipPath id="clip0_346_1180">
<rect width="17" height="17" fill="white"/>
</clipPath>
<clipPath id="clip1_346_1180">
<rect width="17" height="17" fill="white"/>
</clipPath>
</defs>
</svg>
