<svg width="20" height="21" viewBox="0 0 20 21" fill="none" xmlns="http://www.w3.org/2000/svg">
<path fill-rule="evenodd" clip-rule="evenodd" d="M11.4897 3.67C11.1097 2.11 8.88975 2.11 8.50975 3.67C8.45302 3.90442 8.34174 4.12213 8.18497 4.30541C8.02821 4.4887 7.83038 4.63238 7.60759 4.72477C7.38481 4.81716 7.14336 4.85564 6.90289 4.83709C6.66242 4.81854 6.42973 4.74347 6.22375 4.618C4.85175 3.782 3.28175 5.352 4.11775 6.724C4.65775 7.61 4.17875 8.766 3.17075 9.011C1.60975 9.39 1.60975 11.611 3.17075 11.989C3.40523 12.0458 3.62298 12.1572 3.80626 12.3141C3.98955 12.471 4.13319 12.6689 4.22549 12.8918C4.31779 13.1147 4.35614 13.3563 4.33742 13.5968C4.3187 13.8373 4.24343 14.0701 4.11775 14.276C3.28175 15.648 4.85175 17.218 6.22375 16.382C6.42969 16.2563 6.6624 16.1811 6.90293 16.1623C7.14347 16.1436 7.38502 16.182 7.60793 16.2743C7.83084 16.3666 8.02879 16.5102 8.18568 16.6935C8.34256 16.8768 8.45394 17.0945 8.51075 17.329C8.88975 18.89 11.1108 18.89 11.4888 17.329C11.5457 17.0946 11.6572 16.877 11.8142 16.6939C11.9711 16.5107 12.169 16.3672 12.3918 16.2749C12.6147 16.1826 12.8561 16.1442 13.0966 16.1628C13.3371 16.1815 13.5698 16.2565 13.7758 16.382C15.1477 17.218 16.7178 15.648 15.8818 14.276C15.7563 14.07 15.6812 13.8373 15.6626 13.5969C15.644 13.3564 15.6824 13.1149 15.7747 12.8921C15.8669 12.6692 16.0105 12.4713 16.1936 12.3144C16.3768 12.1575 16.5944 12.046 16.8288 11.989C18.3898 11.61 18.3898 9.389 16.8288 9.011C16.5943 8.95419 16.3765 8.84281 16.1932 8.68593C16.01 8.52904 15.8663 8.33109 15.774 8.10818C15.6817 7.88527 15.6434 7.64372 15.6621 7.40318C15.6808 7.16265 15.7561 6.92994 15.8818 6.724C16.7178 5.352 15.1477 3.782 13.7758 4.618C13.5698 4.74368 13.3371 4.81895 13.0966 4.83767C12.856 4.85639 12.6145 4.81804 12.3916 4.72574C12.1687 4.63344 11.9707 4.4898 11.8138 4.30651C11.6569 4.12323 11.5456 3.90548 11.4888 3.671L11.4897 3.67ZM9.99975 13.5C10.7954 13.5 11.5585 13.1839 12.1211 12.6213C12.6837 12.0587 12.9998 11.2956 12.9998 10.5C12.9998 9.70435 12.6837 8.94129 12.1211 8.37868C11.5585 7.81607 10.7954 7.5 9.99975 7.5C9.2041 7.5 8.44104 7.81607 7.87843 8.37868C7.31582 8.94129 6.99975 9.70435 6.99975 10.5C6.99975 11.2956 7.31582 12.0587 7.87843 12.6213C8.44104 13.1839 9.2041 13.5 9.99975 13.5Z" fill="#969696"/>
</svg>
