<svg width="20" height="21" viewBox="0 0 20 21" fill="none" xmlns="http://www.w3.org/2000/svg">
<path fill-rule="evenodd" clip-rule="evenodd" d="M3 3.5C2.73478 3.5 2.48043 3.60536 2.29289 3.79289C2.10536 3.98043 2 4.23478 2 4.5V16.5C2 16.7652 2.10536 17.0196 2.29289 17.2071C2.48043 17.3946 2.73478 17.5 3 17.5C3.26522 17.5 3.51957 17.3946 3.70711 17.2071C3.89464 17.0196 4 16.7652 4 16.5V4.5C4 4.23478 3.89464 3.98043 3.70711 3.79289C3.51957 3.60536 3.26522 3.5 3 3.5ZM13.293 12.793C13.1108 12.9816 13.01 13.2342 13.0123 13.4964C13.0146 13.7586 13.1198 14.0094 13.3052 14.1948C13.4906 14.3802 13.7414 14.4854 14.0036 14.4877C14.2658 14.49 14.5184 14.3892 14.707 14.207L17.707 11.207C17.8945 11.0195 17.9998 10.7652 17.9998 10.5C17.9998 10.2348 17.8945 9.98053 17.707 9.793L14.707 6.793C14.6148 6.69749 14.5044 6.62131 14.3824 6.5689C14.2604 6.51649 14.1292 6.4889 13.9964 6.48775C13.8636 6.4866 13.7319 6.5119 13.609 6.56218C13.4861 6.61246 13.3745 6.68671 13.2806 6.7806C13.1867 6.8745 13.1125 6.98615 13.0622 7.10905C13.0119 7.23194 12.9866 7.36362 12.9877 7.4964C12.9889 7.62918 13.0165 7.7604 13.0689 7.8824C13.1213 8.00441 13.1975 8.11475 13.293 8.207L14.586 9.5H7C6.73478 9.5 6.48043 9.60536 6.29289 9.79289C6.10536 9.98043 6 10.2348 6 10.5C6 10.7652 6.10536 11.0196 6.29289 11.2071C6.48043 11.3946 6.73478 11.5 7 11.5H14.586L13.293 12.793Z" fill="#969696"/>
</svg>
