<svg xmlns="http://www.w3.org/2000/svg" version="1.1" xmlns:xlink="http://www.w3.org/1999/xlink" xmlns:svgjs="http://svgjs.com/svgjs" width="1000" height="1000"><rect width="1000" height="1000" rx="300" ry="300" fill="#ffffff"></rect><g transform="matrix(29.62962962962963,0,0,29.62962962962963,203.70419601709756,100)"><svg xmlns="http://www.w3.org/2000/svg" version="1.1" xmlns:xlink="http://www.w3.org/1999/xlink" xmlns:svgjs="http://svgjs.com/svgjs" width="20" height="27"><svg width="20" height="27" viewBox="0 0 20 27" fill="none" xmlns="http://www.w3.org/2000/svg">
<path d="M15.0527 13.5C17.6134 11.3823 19.3481 8.4124 19.9474 5.11987C20.0387 4.4895 19.9949 3.84658 19.819 3.23488C19.643 2.62318 19.339 2.05704 18.9276 1.575C18.5097 1.08218 17.9918 0.686386 17.4092 0.41459C16.8266 0.142794 16.193 0.00138492 15.5515 0L4.44806 0C3.80564 0.000353072 3.17088 0.141272 2.58723 0.413111C2.00359 0.68495 1.48483 1.08129 1.06647 1.575C0.654008 2.05794 0.349442 2.62542 0.173621 3.2386C-0.00220138 3.85179 -0.0451288 4.49621 0.0477761 5.12775C0.644232 8.41782 2.3773 11.3856 4.93686 13.5C2.37726 15.6152 0.644559 18.5838 0.0488872 21.8745C-0.0438359 22.5056 -0.00092047 23.1495 0.174701 23.7623C0.350322 24.3751 0.654509 24.9422 1.06647 25.425C1.48483 25.9187 2.00359 26.3151 2.58723 26.5869C3.17088 26.8587 3.80564 26.9996 4.44806 27H15.5515C16.1939 26.9994 16.8286 26.8584 17.4122 26.5866C17.9958 26.3148 18.5146 25.9185 18.9331 25.425C19.3452 24.9423 19.6496 24.3752 19.8256 23.7625C20.0016 23.1497 20.045 22.5058 19.9529 21.8745C19.3508 18.5833 17.6143 15.6154 15.0527 13.5ZM16.4714 23.1289C16.3698 23.2814 16.2328 23.4065 16.0725 23.4929C15.9121 23.5794 15.7332 23.6248 15.5515 23.625H4.4425C4.26064 23.6251 4.08154 23.58 3.92091 23.4936C3.76029 23.4073 3.62306 23.2823 3.52127 23.1297C3.41948 22.977 3.35625 22.8015 3.33713 22.6183C3.318 22.4352 3.34357 22.2501 3.41159 22.0793C4.56665 19.5613 6.32291 17.3745 8.52174 15.7163L9.29937 15.0874C9.49595 14.929 9.73972 14.8428 9.9909 14.8428C10.2421 14.8428 10.4859 14.929 10.6824 15.0874L11.449 15.7072C13.6476 17.3714 15.4068 19.5593 16.5702 22.077C16.6401 22.2471 16.6676 22.432 16.6503 22.6154C16.6331 22.7988 16.5716 22.9751 16.4714 23.1289ZM13.7174 21.375H6.27438C7.27251 19.8886 8.4993 18.5737 9.90814 17.4802L9.99701 17.406L10.0759 17.4679C11.4842 18.5692 12.713 19.8876 13.7174 21.375Z" fill="#8A4FFF"></path>
</svg></svg></g></svg>